<mxfile host="app.diagrams.net" agent="Mozilla/5.0 (Windows NT 10.0; Win64; x64) AppleWebKit/537.36 (KHTML, like Gecko) Chrome/140.0.0.0 Safari/537.36" version="28.2.5">
  <diagram name="Page-1" id="WQvRxSqv2zl5u0XCbZjl">
    <mxGraphModel dx="1281" dy="623" grid="1" gridSize="10" guides="1" tooltips="1" connect="1" arrows="1" fold="1" page="1" pageScale="1" pageWidth="850" pageHeight="1100" math="0" shadow="0">
      <root>
        <mxCell id="0" />
        <mxCell id="1" parent="0" />
        <mxCell id="pMWlbAVLA24nhimcLT4H-4" value="&lt;font style=&quot;font-size: 24px;&quot;&gt;&lt;b&gt;Frontend(Client)&lt;/b&gt;&lt;/font&gt;" style="rounded=0;whiteSpace=wrap;html=1;" vertex="1" parent="1">
          <mxGeometry x="170" y="20" width="490" height="60" as="geometry" />
        </mxCell>
        <mxCell id="pMWlbAVLA24nhimcLT4H-5" value="&lt;font style=&quot;font-size: 18px;&quot;&gt;&lt;b&gt;API GATEWAY&lt;/b&gt;&lt;/font&gt;" style="rounded=0;whiteSpace=wrap;html=1;" vertex="1" parent="1">
          <mxGeometry x="220" y="150" width="390" height="50" as="geometry" />
        </mxCell>
        <mxCell id="pMWlbAVLA24nhimcLT4H-6" value="" style="whiteSpace=wrap;html=1;aspect=fixed;" vertex="1" parent="1">
          <mxGeometry x="10" y="320" width="250" height="250" as="geometry" />
        </mxCell>
        <mxCell id="pMWlbAVLA24nhimcLT4H-7" value="" style="whiteSpace=wrap;html=1;aspect=fixed;" vertex="1" parent="1">
          <mxGeometry x="300" y="320" width="250" height="250" as="geometry" />
        </mxCell>
        <mxCell id="pMWlbAVLA24nhimcLT4H-8" value="" style="whiteSpace=wrap;html=1;aspect=fixed;" vertex="1" parent="1">
          <mxGeometry x="590" y="320" width="250" height="250" as="geometry" />
        </mxCell>
        <mxCell id="pMWlbAVLA24nhimcLT4H-9" value="AuthDB" style="shape=datastore;whiteSpace=wrap;html=1;" vertex="1" parent="1">
          <mxGeometry x="100" y="500" width="60" height="60" as="geometry" />
        </mxCell>
        <mxCell id="pMWlbAVLA24nhimcLT4H-10" value="UserDB" style="shape=datastore;whiteSpace=wrap;html=1;" vertex="1" parent="1">
          <mxGeometry x="395" y="490" width="60" height="60" as="geometry" />
        </mxCell>
        <mxCell id="pMWlbAVLA24nhimcLT4H-11" value="DeviceDB" style="shape=datastore;whiteSpace=wrap;html=1;" vertex="1" parent="1">
          <mxGeometry x="685" y="490" width="60" height="60" as="geometry" />
        </mxCell>
        <mxCell id="pMWlbAVLA24nhimcLT4H-13" value="&lt;b&gt;&lt;font style=&quot;font-size: 14px;&quot;&gt;auth-service&lt;/font&gt;&lt;/b&gt;" style="rounded=0;whiteSpace=wrap;html=1;" vertex="1" parent="1">
          <mxGeometry x="70" y="380" width="120" height="80" as="geometry" />
        </mxCell>
        <mxCell id="pMWlbAVLA24nhimcLT4H-14" value="&lt;b&gt;&lt;font style=&quot;font-size: 14px;&quot;&gt;user-service&lt;/font&gt;&lt;/b&gt;" style="rounded=0;whiteSpace=wrap;html=1;" vertex="1" parent="1">
          <mxGeometry x="365" y="380" width="120" height="80" as="geometry" />
        </mxCell>
        <mxCell id="pMWlbAVLA24nhimcLT4H-15" value="&lt;b&gt;&lt;font style=&quot;font-size: 14px;&quot;&gt;device-service&lt;/font&gt;&lt;/b&gt;" style="rounded=0;whiteSpace=wrap;html=1;" vertex="1" parent="1">
          <mxGeometry x="655" y="380" width="120" height="80" as="geometry" />
        </mxCell>
        <mxCell id="pMWlbAVLA24nhimcLT4H-23" value="" style="endArrow=classic;startArrow=classic;html=1;rounded=0;exitX=0.5;exitY=0;exitDx=0;exitDy=0;entryX=0.25;entryY=1;entryDx=0;entryDy=0;" edge="1" parent="1" source="pMWlbAVLA24nhimcLT4H-6" target="pMWlbAVLA24nhimcLT4H-5">
          <mxGeometry width="50" height="50" relative="1" as="geometry">
            <mxPoint x="400" y="350" as="sourcePoint" />
            <mxPoint x="450" y="300" as="targetPoint" />
          </mxGeometry>
        </mxCell>
        <mxCell id="pMWlbAVLA24nhimcLT4H-24" value="" style="endArrow=classic;startArrow=classic;html=1;rounded=0;exitX=0.5;exitY=0;exitDx=0;exitDy=0;entryX=0.5;entryY=1;entryDx=0;entryDy=0;" edge="1" parent="1" source="pMWlbAVLA24nhimcLT4H-7" target="pMWlbAVLA24nhimcLT4H-5">
          <mxGeometry width="50" height="50" relative="1" as="geometry">
            <mxPoint x="230" y="370" as="sourcePoint" />
            <mxPoint x="420" y="210" as="targetPoint" />
          </mxGeometry>
        </mxCell>
        <mxCell id="pMWlbAVLA24nhimcLT4H-25" value="" style="endArrow=classic;startArrow=classic;html=1;rounded=0;exitX=0.5;exitY=0;exitDx=0;exitDy=0;entryX=0.75;entryY=1;entryDx=0;entryDy=0;" edge="1" parent="1" source="pMWlbAVLA24nhimcLT4H-8" target="pMWlbAVLA24nhimcLT4H-5">
          <mxGeometry width="50" height="50" relative="1" as="geometry">
            <mxPoint x="510" y="360" as="sourcePoint" />
            <mxPoint x="500" y="240" as="targetPoint" />
          </mxGeometry>
        </mxCell>
        <mxCell id="pMWlbAVLA24nhimcLT4H-26" value="" style="endArrow=classic;startArrow=classic;html=1;rounded=0;exitX=0.5;exitY=1;exitDx=0;exitDy=0;entryX=0.5;entryY=0;entryDx=0;entryDy=0;" edge="1" parent="1" source="pMWlbAVLA24nhimcLT4H-4" target="pMWlbAVLA24nhimcLT4H-5">
          <mxGeometry width="50" height="50" relative="1" as="geometry">
            <mxPoint x="430" y="380" as="sourcePoint" />
            <mxPoint x="420" y="260" as="targetPoint" />
          </mxGeometry>
        </mxCell>
        <mxCell id="pMWlbAVLA24nhimcLT4H-27" value="" style="endArrow=classic;startArrow=classic;html=1;rounded=0;exitX=0.5;exitY=0;exitDx=0;exitDy=0;entryX=0.5;entryY=1;entryDx=0;entryDy=0;" edge="1" parent="1" source="pMWlbAVLA24nhimcLT4H-9" target="pMWlbAVLA24nhimcLT4H-13">
          <mxGeometry width="50" height="50" relative="1" as="geometry">
            <mxPoint x="200" y="390" as="sourcePoint" />
            <mxPoint x="383" y="270" as="targetPoint" />
          </mxGeometry>
        </mxCell>
        <mxCell id="pMWlbAVLA24nhimcLT4H-28" value="" style="endArrow=classic;startArrow=classic;html=1;rounded=0;exitX=0.5;exitY=0;exitDx=0;exitDy=0;entryX=0.5;entryY=1;entryDx=0;entryDy=0;" edge="1" parent="1" source="pMWlbAVLA24nhimcLT4H-10" target="pMWlbAVLA24nhimcLT4H-14">
          <mxGeometry width="50" height="50" relative="1" as="geometry">
            <mxPoint x="350" y="520" as="sourcePoint" />
            <mxPoint x="350" y="480" as="targetPoint" />
          </mxGeometry>
        </mxCell>
        <mxCell id="pMWlbAVLA24nhimcLT4H-29" value="" style="endArrow=classic;startArrow=classic;html=1;rounded=0;exitX=0.5;exitY=0;exitDx=0;exitDy=0;entryX=0.5;entryY=1;entryDx=0;entryDy=0;" edge="1" parent="1" source="pMWlbAVLA24nhimcLT4H-11" target="pMWlbAVLA24nhimcLT4H-15">
          <mxGeometry width="50" height="50" relative="1" as="geometry">
            <mxPoint x="580" y="510" as="sourcePoint" />
            <mxPoint x="570" y="440" as="targetPoint" />
          </mxGeometry>
        </mxCell>
      </root>
    </mxGraphModel>
  </diagram>
</mxfile>
